<svg xmlns="http://www.w3.org/2000/svg" viewBox="0 0 512 512" role="img" aria-labelledby="title desc" style="background:transparent" overflow="visible">
<title id="title">Hisab Technologies logo</title>
<desc id="desc">Transparent official Hisab Technologies H mark in terracotta and charcoal, with no background shape.</desc>
<path d="M 387 221 L 328 220 L 387 221 L 385 223 L 326 221 L 327 222 L 325 224 L 324 223 L 322 227 L 320 226 L 318 230 L 311 234 L 311 236 L 309 235 L 305 241 L 302 241 L 297 247 L 296 246 L 294 248 L 294 250 L 292 249 L 290 253 L 287 255 L 286 254 L 283 259 L 279 259 L 279 261 L 272 260 L 274 259 L 271 260 L 270 257 L 269 258 L 266 254 L 265 255 L 262 253 L 260 249 L 258 250 L 256 246 L 255 247 L 251 244 L 252 243 L 245 243 L 245 241 L 177 242 L 177 244 L 175 243 L 173 246 L 171 245 L 169 249 L 167 248 L 165 252 L 162 252 L 155 259 L 154 258 L 152 262 L 150 261 L 146 266 L 144 266 L 144 268 L 138 270 L 134 276 L 132 275 L 133 274 L 131 278 L 129 277 L 129 279 L 126 281 L 125 280 L 122 284 L 121 283 L 119 287 L 117 286 L 116 289 L 114 288 L 111 293 L 109 292 L 105 297 L 103 297 L 103 299 L 101 298 L 97 303 L 95 303 L 95 305 L 89 307 L 86 312 L 83 312 L 82 315 L 80 314 L 72 320 L 69 325 L 67 324 L 61 329 L 63 327 L 180 328 L 180 293 L 186 290 L 184 289 L 190 288 L 191 289 L 189 290 L 192 289 L 192 291 L 195 291 L 197 294 L 199 293 L 199 295 L 200 294 L 203 296 L 202 297 L 204 296 L 205 299 L 206 298 L 211 303 L 216 304 L 217 307 L 221 307 L 222 310 L 224 309 L 225 312 L 227 311 L 228 314 L 230 313 L 230 315 L 233 317 L 234 316 L 236 319 L 238 318 L 240 322 L 244 322 L 244 324 L 248 327 L 252 327 L 252 329 L 255 329 L 256 332 L 258 331 L 259 334 L 271 336 L 274 333 L 276 334 L 347 262 L 346 260 Z" fill="#171717"/>
<path d="M 284 229 L 287 230 L 295 222 L 296 223 L 305 215 L 305 213 L 307 214 L 313 207 L 314 208 L 316 206 L 316 204 L 318 205 L 322 199 L 325 199 L 329 194 L 330 195 L 335 189 L 336 190 L 341 184 L 342 185 L 346 179 L 348 180 L 351 175 L 354 175 L 357 170 L 359 171 L 365 164 L 366 165 L 371 159 L 372 160 L 375 155 L 377 156 L 379 154 L 378 153 L 382 150 L 383 151 L 386 147 L 283 147 L 285 148 Z" fill="#171717"/>
<path d="M 60 85 L 61 83 L 62 85 L 179 85 L 181 84 L 181 81 L 178 79 L 178 76 L 175 74 L 174 75 L 172 72 L 74 72 L 76 73 L 67 75 L 62 80 Z" fill="#171717"/>
<path d="M 184 290 L 181 294 L 182 328 L 178 329 L 181 329 L 181 331 L 63 331 L 64 326 L 66 326 L 69 322 L 52 337 L 49 345 L 49 428 L 55 437 L 59 439 L 162 440 L 162 438 L 167 438 L 167 440 L 178 435 L 181 430 L 182 294 L 185 291 Z" fill="#DA7757"/>
<path d="M 397 243 L 393 242 L 285 351 L 283 355 L 283 428 L 285 433 L 290 438 L 387 439 L 395 434 L 398 426 Z" fill="#DA7757"/>
<path d="M 456 127 L 451 125 L 442 127 L 329 219 L 387 220 L 316 294 L 347 263 L 346 262 L 378 231 L 377 230 L 379 228 L 380 229 L 379 228 L 382 225 L 383 226 L 387 220 L 389 221 L 388 220 L 459 147 L 462 136 Z" fill="#DA7757"/>
<path d="M 182 84 L 179 86 L 60 86 L 60 306 L 103 275 L 179 216 L 181 212 Z" fill="#DA7757"/>
<path d="M 285 78 L 283 83 L 283 146 L 388 147 L 397 139 L 397 81 L 395 77 L 388 72 L 297 71 L 297 73 L 293 72 Z" fill="#DA7757"/>
</svg>
